<svg width="29" height="29" viewBox="0 0 29 29" fill="none" xmlns="http://www.w3.org/2000/svg">
<path fill-rule="evenodd" clip-rule="evenodd" d="M2.24872 0.389647C1.73429 -0.129882 0.900245 -0.129882 0.38582 0.389647C-0.128606 0.909176 -0.128607 1.7515 0.385819 2.27103L12.4948 14.5001L0.385992 26.729C-0.128434 27.2485 -0.128434 28.0908 0.385992 28.6104C0.900417 29.1299 1.73447 29.1299 2.24889 28.6104L14.3577 16.3815L26.4664 28.6104C26.9808 29.1299 27.8149 29.1299 28.3293 28.6104C28.8437 28.0908 28.8437 27.2485 28.3293 26.729L16.2206 14.5001L28.3295 2.27103C28.8439 1.7515 28.8439 0.909177 28.3295 0.389648C27.8151 -0.129881 26.981 -0.129882 26.4666 0.389647L14.3577 12.6187L2.24872 0.389647Z" fill="black"/>
</svg>
